<svg id="visual" viewBox="0 0 400 100" width="400" height="100" xmlns="http://www.w3.org/2000/svg" xmlns:xlink="http://www.w3.org/1999/xlink" version="1.1"><rect x="0" y="0" width="400" height="100" fill="#001220"></rect><defs><linearGradient id="grad1_0" x1="75%" y1="0%" x2="100%" y2="100%"><stop offset="-30%" stop-color="#fbae3c" stop-opacity="1"></stop><stop offset="130%" stop-color="#fbae3c" stop-opacity="1"></stop></linearGradient></defs><defs><linearGradient id="grad1_1" x1="75%" y1="0%" x2="100%" y2="100%"><stop offset="-30%" stop-color="#fbae3c" stop-opacity="1"></stop><stop offset="130%" stop-color="#f48350" stop-opacity="1"></stop></linearGradient></defs><defs><linearGradient id="grad1_2" x1="75%" y1="0%" x2="100%" y2="100%"><stop offset="-30%" stop-color="#d96162" stop-opacity="1"></stop><stop offset="130%" stop-color="#f48350" stop-opacity="1"></stop></linearGradient></defs><defs><linearGradient id="grad1_3" x1="75%" y1="0%" x2="100%" y2="100%"><stop offset="-30%" stop-color="#d96162" stop-opacity="1"></stop><stop offset="130%" stop-color="#af4b6d" stop-opacity="1"></stop></linearGradient></defs><defs><linearGradient id="grad1_4" x1="75%" y1="0%" x2="100%" y2="100%"><stop offset="-30%" stop-color="#7c3e6b" stop-opacity="1"></stop><stop offset="130%" stop-color="#af4b6d" stop-opacity="1"></stop></linearGradient></defs><defs><linearGradient id="grad1_5" x1="75%" y1="0%" x2="100%" y2="100%"><stop offset="-30%" stop-color="#7c3e6b" stop-opacity="1"></stop><stop offset="130%" stop-color="#49335c" stop-opacity="1"></stop></linearGradient></defs><defs><linearGradient id="grad1_6" x1="75%" y1="0%" x2="100%" y2="100%"><stop offset="-30%" stop-color="#1d2540" stop-opacity="1"></stop><stop offset="130%" stop-color="#49335c" stop-opacity="1"></stop></linearGradient></defs><defs><linearGradient id="grad1_7" x1="75%" y1="0%" x2="100%" y2="100%"><stop offset="-30%" stop-color="#1d2540" stop-opacity="1"></stop><stop offset="130%" stop-color="#001220" stop-opacity="1"></stop></linearGradient></defs><defs><linearGradient id="grad2_0" x1="0%" y1="0%" x2="25%" y2="100%"><stop offset="-30%" stop-color="#fbae3c" stop-opacity="1"></stop><stop offset="130%" stop-color="#fbae3c" stop-opacity="1"></stop></linearGradient></defs><defs><linearGradient id="grad2_1" x1="0%" y1="0%" x2="25%" y2="100%"><stop offset="-30%" stop-color="#f48350" stop-opacity="1"></stop><stop offset="130%" stop-color="#fbae3c" stop-opacity="1"></stop></linearGradient></defs><defs><linearGradient id="grad2_2" x1="0%" y1="0%" x2="25%" y2="100%"><stop offset="-30%" stop-color="#f48350" stop-opacity="1"></stop><stop offset="130%" stop-color="#d96162" stop-opacity="1"></stop></linearGradient></defs><defs><linearGradient id="grad2_3" x1="0%" y1="0%" x2="25%" y2="100%"><stop offset="-30%" stop-color="#af4b6d" stop-opacity="1"></stop><stop offset="130%" stop-color="#d96162" stop-opacity="1"></stop></linearGradient></defs><defs><linearGradient id="grad2_4" x1="0%" y1="0%" x2="25%" y2="100%"><stop offset="-30%" stop-color="#af4b6d" stop-opacity="1"></stop><stop offset="130%" stop-color="#7c3e6b" stop-opacity="1"></stop></linearGradient></defs><defs><linearGradient id="grad2_5" x1="0%" y1="0%" x2="25%" y2="100%"><stop offset="-30%" stop-color="#49335c" stop-opacity="1"></stop><stop offset="130%" stop-color="#7c3e6b" stop-opacity="1"></stop></linearGradient></defs><defs><linearGradient id="grad2_6" x1="0%" y1="0%" x2="25%" y2="100%"><stop offset="-30%" stop-color="#49335c" stop-opacity="1"></stop><stop offset="130%" stop-color="#1d2540" stop-opacity="1"></stop></linearGradient></defs><defs><linearGradient id="grad2_7" x1="0%" y1="0%" x2="25%" y2="100%"><stop offset="-30%" stop-color="#001220" stop-opacity="1"></stop><stop offset="130%" stop-color="#1d2540" stop-opacity="1"></stop></linearGradient></defs><g transform="translate(400, 0)"><path d="M0 100C-16 95 -32 90 -47.5 82.3C-63 74.6 -77.9 64.2 -86.6 50C-95.3 35.8 -97.6 17.9 -100 0L0 0Z" fill="#0c1c30"></path><path d="M0 87.5C-14 83.1 -28 78.7 -41.6 72C-55.1 65.2 -68.2 56.1 -75.8 43.8C-83.4 31.4 -85.4 15.7 -87.5 0L0 0Z" fill="#312c4f"></path><path d="M0 75C-12 71.2 -24 67.5 -35.6 61.7C-47.2 55.9 -58.5 48.1 -65 37.5C-71.4 26.9 -73.2 13.4 -75 0L0 0Z" fill="#623965"></path><path d="M0 62.5C-10 59.4 -20 56.2 -29.7 51.4C-39.4 46.6 -48.7 40.1 -54.1 31.3C-59.5 22.4 -61 11.2 -62.5 0L0 0Z" fill="#96446e"></path><path d="M0 50C-8 47.5 -16 45 -23.7 41.1C-31.5 37.3 -39 32.1 -43.3 25C-47.6 17.9 -48.8 9 -50 0L0 0Z" fill="#c55469"></path><path d="M0 37.5C-6 35.6 -12 33.7 -17.8 30.9C-23.6 28 -29.2 24.1 -32.5 18.8C-35.7 13.4 -36.6 6.7 -37.5 0L0 0Z" fill="#e9705a"></path><path d="M0 25C-4 23.7 -8 22.5 -11.9 20.6C-15.7 18.6 -19.5 16 -21.7 12.5C-23.8 9 -24.4 4.5 -25 0L0 0Z" fill="#fa9845"></path><path d="M0 12.5C-2 11.9 -4 11.2 -5.9 10.3C-7.9 9.3 -9.7 8 -10.8 6.3C-11.9 4.5 -12.2 2.2 -12.5 0L0 0Z" fill="#fbae3c"></path></g><g transform="translate(0, 100)"><path d="M0 -100C10.9 -86.2 21.9 -72.4 38 -65.8C54.1 -59.2 75.4 -59.8 86.6 -50C97.8 -40.2 98.9 -20.1 100 0L0 0Z" fill="#0c1c30"></path><path d="M0 -87.5C9.6 -75.4 19.1 -63.4 33.2 -57.6C47.4 -51.8 66 -52.3 75.8 -43.8C85.6 -35.2 86.5 -17.6 87.5 0L0 0Z" fill="#312c4f"></path><path d="M0 -75C8.2 -64.7 16.4 -54.3 28.5 -49.4C40.6 -44.4 56.6 -44.8 65 -37.5C73.3 -30.2 74.2 -15.1 75 0L0 0Z" fill="#623965"></path><path d="M0 -62.5C6.8 -53.9 13.7 -45.3 23.7 -41.1C33.8 -37 47.1 -37.4 54.1 -31.3C61.1 -25.1 61.8 -12.6 62.5 0L0 0Z" fill="#96446e"></path><path d="M0 -50C5.5 -43.1 10.9 -36.2 19 -32.9C27.1 -29.6 37.7 -29.9 43.3 -25C48.9 -20.1 49.4 -10.1 50 0L0 0Z" fill="#c55469"></path><path d="M0 -37.5C4.1 -32.3 8.2 -27.2 14.2 -24.7C20.3 -22.2 28.3 -22.4 32.5 -18.8C36.7 -15.1 37.1 -7.5 37.5 0L0 0Z" fill="#e9705a"></path><path d="M0 -25C2.7 -21.6 5.5 -18.1 9.5 -16.5C13.5 -14.8 18.9 -14.9 21.7 -12.5C24.4 -10.1 24.7 -5 25 0L0 0Z" fill="#fa9845"></path><path d="M0 -12.5C1.4 -10.8 2.7 -9.1 4.7 -8.2C6.8 -7.4 9.4 -7.5 10.8 -6.3C12.2 -5 12.4 -2.5 12.5 0L0 0Z" fill="#fbae3c"></path></g></svg>