<svg id="visual" viewBox="0 0 900 600" width="900" height="600" xmlns="http://www.w3.org/2000/svg" xmlns:xlink="http://www.w3.org/1999/xlink" version="1.1"><rect x="0" y="0" width="900" height="600" fill="#54a8e9"></rect><path d="M0 421L21.5 414.3C43 407.7 86 394.3 128.8 385C171.7 375.7 214.3 370.3 257.2 380.5C300 390.7 343 416.3 385.8 422.5C428.7 428.7 471.3 415.3 514.2 401.8C557 388.3 600 374.7 642.8 378.3C685.7 382 728.3 403 771.2 405.8C814 408.7 857 393.3 878.5 385.7L900 378L900 601L878.5 601C857 601 814 601 771.2 601C728.3 601 685.7 601 642.8 601C600 601 557 601 514.2 601C471.3 601 428.7 601 385.8 601C343 601 300 601 257.2 601C214.3 601 171.7 601 128.8 601C86 601 43 601 21.5 601L0 601Z" fill="#1336fe"></path><path d="M0 434L21.5 431C43 428 86 422 128.8 418.5C171.7 415 214.3 414 257.2 413.5C300 413 343 413 385.8 417.7C428.7 422.3 471.3 431.7 514.2 441.7C557 451.7 600 462.3 642.8 462.8C685.7 463.3 728.3 453.7 771.2 443C814 432.3 857 420.7 878.5 414.8L900 409L900 601L878.5 601C857 601 814 601 771.2 601C728.3 601 685.7 601 642.8 601C600 601 557 601 514.2 601C471.3 601 428.7 601 385.8 601C343 601 300 601 257.2 601C214.3 601 171.7 601 128.8 601C86 601 43 601 21.5 601L0 601Z" fill="#2f4df4"></path><path d="M0 463L21.5 459.8C43 456.7 86 450.3 128.8 453C171.7 455.7 214.3 467.3 257.2 475.5C300 483.7 343 488.3 385.8 486.5C428.7 484.7 471.3 476.3 514.2 477.8C557 479.3 600 490.7 642.8 494.7C685.7 498.7 728.3 495.3 771.2 488.8C814 482.3 857 472.7 878.5 467.8L900 463L900 601L878.5 601C857 601 814 601 771.2 601C728.3 601 685.7 601 642.8 601C600 601 557 601 514.2 601C471.3 601 428.7 601 385.8 601C343 601 300 601 257.2 601C214.3 601 171.7 601 128.8 601C86 601 43 601 21.5 601L0 601Z" fill="#4760e8"></path><path d="M0 489L21.5 493C43 497 86 505 128.8 512.2C171.7 519.3 214.3 525.7 257.2 522.7C300 519.7 343 507.3 385.8 506C428.7 504.7 471.3 514.3 514.2 517.7C557 521 600 518 642.8 521.2C685.7 524.3 728.3 533.7 771.2 528.2C814 522.7 857 502.3 878.5 492.2L900 482L900 601L878.5 601C857 601 814 601 771.2 601C728.3 601 685.7 601 642.8 601C600 601 557 601 514.2 601C471.3 601 428.7 601 385.8 601C343 601 300 601 257.2 601C214.3 601 171.7 601 128.8 601C86 601 43 601 21.5 601L0 601Z" fill="#5d70da"></path><path d="M0 562L21.5 562.8C43 563.7 86 565.3 128.8 564.7C171.7 564 214.3 561 257.2 556.2C300 551.3 343 544.7 385.8 542.3C428.7 540 471.3 542 514.2 541C557 540 600 536 642.8 536.5C685.7 537 728.3 542 771.2 548.3C814 554.7 857 562.3 878.5 566.2L900 570L900 601L878.5 601C857 601 814 601 771.2 601C728.3 601 685.7 601 642.8 601C600 601 557 601 514.2 601C471.3 601 428.7 601 385.8 601C343 601 300 601 257.2 601C214.3 601 171.7 601 128.8 601C86 601 43 601 21.5 601L0 601Z" fill="#717fca"></path></svg>